<svg id="b" xmlns="http://www.w3.org/2000/svg" width="265.472" height="224.6" viewBox="0 0 265.472 224.6"><defs><style>.g{fill:#fcdc4a;}.g,.h,.i{stroke-width:0px;}.h{fill:#fff;}.i{fill:#211715;}</style></defs><g id="c"><g id="d"><path class="h" d="m171.811,54.781c-6.747,4.664-14.232,8.675-27.901,15.167-12.766,6.064-26.801,9.944-37.771,13.363-1.354-.763-2.876-1.063-4.235-1.02-4.094.128-5.845,2.336-6.6,3.633-2.253,3.872-2.186,11.023-.701,15.453,1.051,3.137,2.775,7.937,6.963,11.391,1.856,1.531,4.659,2.506,7.258,1.847,1.878,6.472,5.293,14.286,11.316,21.552,4.662,5.625,9.566,9.817,15.034,12.449-.022,2.069.027,3.036-.181,5.888-.101,1.381-.208,2.874-.72,4.222-.686,1.772-1.61,3.307-3.095,4.505-1.217.98-2.447,1.763-3.729,2.44.782,3.317,1.592,6.643,2.43,9.973,8.624,4.515,18.413,6.563,28.225,6.299,9.814.264,19.604-1.785,28.233-6.301.879-3.517,1.732-7.029,2.552-10.529-.927-.544-1.832-1.159-2.729-1.882-1.485-1.198-2.408-2.733-3.095-4.505-.512-1.348-.619-2.84-.72-4.222-.224-3.073-.15-3.958-.191-6.398,11.705-6.486,20.943-22.281,22.642-26.837.588-1.213,1.552-3.711,2.335-6.262.41.071.644.111.644.111,2.434.421,4.985-.502,6.722-1.912,4.214-3.421,5.975-8.207,7.051-11.336,1.519-4.419,1.642-11.569-.581-15.458-.745-1.303-2.478-3.524-6.571-3.684-2.493-.098-5.547.954-7.1,3.925-4.32-14.306-13.749-29.95-24.203-40.61-4.132,3.448-7.596,6.19-11.281,8.737Z"></path><path class="h" d="m48.359,134.08c-1.67,1.043-3.233,1.451-4.645,1.212-.834-.14-1.597-.433-2.267-.868-2.387-1.552-4.864-5.293-6.975-10.535-2.715-6.742-1.211-11.367.529-16.723.407-1.253.829-2.549,1.201-3.899.795-2.778.37-5.543-1.199-7.78-1.471-2.098-3.834-3.452-6.319-3.624-2.197-.26-4.533.287-6.543,1.544s-3.542,3.142-4.2,5.171c-1.283,3.352-1.148,6.822-.845,9.771.077.749.06,2.213-.918,3.609-.53.758-1.303,1.475-2.176,2.02-.961.6-2.008.98-3.028,1.099-2.737.318-4.846-.959-6.446-3.903-1.685-3.102-2.414-6.885-2.053-10.652.708-7.388,5.763-15.034,12.877-19.48,4.042-2.526,10.553-5.132,18.621-3.208,5.687,1.356,10.911,5.221,13.975,10.338,2.796,4.67,3.606,10.006,2.283,15.025-.835,3.168-1.618,5.48-2.309,7.519-.408,1.205-.76,2.245-1.064,3.286-.738,2.529-.411,5.493.855,7.735l.536.943c.87,1.525,1.621,2.842,2.274,4.387.362.857.597,2.32.303,3.657-.294,1.338-1.192,2.562-2.465,3.357Z"></path><path class="h" d="m60.061,153.775c-2.039,1.274-4.495,1.5-6.573.605-3.257-1.586-4.482-5.042-3.993-7.631.317-1.677,1.398-3.165,3.126-4.305l.127-.082c.808-.505,3.669-2.055,6.557-.796,3.067,1.337,4.801,5.195,3.788,8.426-.475,1.515-1.552,2.858-3.032,3.783Z"></path><path class="h" d="m106.229,170.489c1.138-4.94,2.599-9.515,4.431-13.319,4.278-8.883,10.646-11.75,20.127-13.044,4.57-.624,9.325-.21,13.589,1.546,4.808,1.979,8.617,6.236,5.967,11.847,4.109.904,5.835,3.544,5.673,6.87-.088,1.802-1.324,5.096-4.407,5.725l-.524.107c2.652,1.296,3.087,3.636,3.129,5.21.075,2.79-2.417,5.764-4.724,5.505-1.668-.187-3.03-.337-4.291-.451.837.467,1.311.732,1.311.732,1.586.885,2.557,2.769,2.67,4.156.119,1.46-.217,3.005-1.054,4.183-1.319,1.856-3.558,1.962-5.485,2.18-2.518.285-4.798.948-5.642,3.306-.328.916-1.585,6.886-2.069,8.645-.973,3.539-2.53,7.004-5.123,9.665-2.593,2.661-6.334,4.434-10.139,4.143,0,0-1.561-.12-2.723-.208-5.988-2.485-14.098-6.303-16.047-9.306-2.178-3.355,1.976-9.992,2.322-15.596.448-7.263,1.409-14.941,3.011-21.897Z"></path><path class="h" d="m53.104,222.184c13.15-25.29,36-45.55,62.66-55.8,3.12-2.43,6.39-4.63,9.04-6.36.58-.36,1.32-.06,1.47.6.16.72.33,1.45.5,2.17,4.59,19.84,10.22,40.1,16.45,59.39H53.104Z"></path><path class="h" d="m263.104,222.181c-13.15-25.27-35.99-45.54-62.629-55.784-3.136-2.436-6.423-4.649-9.081-6.372-.555-.366-1.319-.063-1.465.596-4.667,20.531-10.485,41.565-16.942,61.562l90.118-.003Z"></path><path class="h" d="m210.014,113.487c-4.048,0-6.846,2.847-6.846,6.179,0,3.728,2.858,6.295,6.846,6.295,4.142,0,6.846-2.591,6.846-6.295,0-3.354-2.813-6.179-6.846-6.179Z"></path><g id="e"><path class="g" d="m158.104,181.945c-3.951.106-7.897-.169-11.767-.823.101.056.172.096.172.096,1.586.885,2.557,2.769,2.67,4.156.119,1.46-.217,3.005-1.054,4.183-1.319,1.856-3.558,1.962-5.485,2.18-2.518.285-4.798.948-5.642,3.306-.154.432-.516,1.988-.905,3.695,2.266,7.911,4.653,15.757,7.136,23.449h29.761c4.89-15.144,9.413-30.883,13.35-46.544-8.629,4.516-18.42,6.566-28.235,6.302Z" style="fill: rgb(252, 220, 74);"></path><path class="g" d="m228.422,97.533c-2.739-13.225-4.545-26.617-6.493-39.975-1.952-13.381-7.519-27.684-17.441-37.191-3.964-3.798-5.338-5.731-9.19-7.985,0,0-2.23-1.305-4.46-2.611-2.215-.898-4.43-1.796-4.43-1.796-8.235-3.338-16.812-5.554-28.995-5.554-19.975,0-37.754,10.29-45.643,17.844-21.231,20.326-18.576,50.225-23.401,76.739-1.916,11.057-3.157,22.601,2.116,32.394,4.927,9.151,18.349,15.014,31.457,16.863,2.006-.794,4.212-1.364,6.64-1.789-2.937-2.271-5.732-5.037-8.441-8.305-6.023-7.266-9.438-15.081-11.316-21.552-2.598.659-5.402-.317-7.258-1.847-4.187-3.453-5.911-8.253-6.963-11.391-1.485-4.43-1.551-11.581.701-15.453.755-1.297,2.505-3.505,6.599-3.633,1.359-.043,2.881.257,4.235,1.02,10.97-3.419,25.005-7.299,37.771-13.363,13.669-6.493,21.154-10.503,27.901-15.167,3.685-2.547,7.15-5.289,11.281-8.737,10.455,10.66,19.884,26.304,24.203,40.61,1.553-2.971,4.607-4.023,7.1-3.925,4.093.16,5.826,2.381,6.571,3.684,2.223,3.889,2.1,11.04.581,15.458-1.076,3.129-2.837,7.916-7.051,11.336-.417.338-.883.646-1.38.917,2.298,1.017,3.744,3.14,3.744,5.541,0,3.704-2.704,6.295-6.846,6.295-2.657,0-4.807-1.144-5.95-3.007-2.749,5.749-10.84,18.476-20.919,24.577,15.083-.062,31.79-3.305,41.14-15.7,7.902-10.476,6.619-22.309,4.137-34.297Z" style="fill: rgb(252, 220, 74);"></path></g></g><g id="f"><path class="i" d="m181.395,44.347c-6.321,5.27-12.789,10.029-20.061,14.108-10.4,5.833-21.286,11.081-32.517,15.094-6.601,2.359-13.314,4.383-20.016,6.433-2.945.901-1.689,5.536,1.276,4.629,12.531-3.833,24.96-7.766,36.808-13.431,9.022-4.313,18.082-8.734,26.316-14.451,4.017-2.789,7.834-5.858,11.588-8.988.996-.831.858-2.536,0-3.394-.986-.986-2.395-.833-3.394,0h0Z"></path><path class="i" d="m181.395,47.741c8.75,8.968,15.807,19.886,20.655,31.431.502,1.194,1.587,2.051,2.952,1.676,1.126-.309,2.181-1.75,1.676-2.952-5.183-12.339-12.524-23.95-21.89-33.549-2.161-2.215-5.554,1.181-3.394,3.394h0Z"></path><path class="i" d="m176.602,152.828c7.747-1.785,14.18-7.432,19.236-13.316,3.995-4.65,7.628-9.813,10.298-15.347.563-1.167.32-2.593-.861-3.284-1.051-.615-2.718-.311-3.284.861-2.439,5.055-5.677,9.822-9.306,14.092-4.58,5.391-10.268,10.731-17.36,12.365-3.009.693-1.735,5.322,1.276,4.629h0Z"></path><path class="i" d="m205.779,110.666c-.183.878-.402,1.748-.65,2.61-.1.319-.114.638-.043.957.014.319.109.617.285.892.151.28.357.504.618.673.232.212.504.355.816.43l.638.086c.433-.001.837-.111,1.211-.328.53-.341.926-.819,1.103-1.434.248-.862.467-1.732.65-2.61.1-.319.114-.638.043-.957-.014-.319-.109-.617-.285-.892-.151-.28-.357-.504-.618-.673-.232-.212-.504-.355-.816-.43l-.638-.086c-.433.001-.837.111-1.211.328-.507.327-.976.824-1.103,1.434h0Z"></path><path class="i" d="m105.519,111.372c2.991,13.44,10.447,26.249,21.337,34.799,1.018.8,2.4.994,3.394,0,.832-.832,1.025-2.589,0-3.394-10.316-8.099-17.27-19.949-20.103-32.681-.671-3.014-5.299-1.738-4.629,1.276h0Z"></path><path class="i" d="m109.304,82.707c-3.254-2.977-8.032-3.622-12.02-1.755-2.961,1.386-4.688,4.256-5.462,7.336-1.812,7.208-.027,15.427,4.032,21.592,2.734,4.152,7.095,7.969,12.419,7.253,1.284-.173,2.4-.98,2.4-2.4,0-1.163-1.106-2.574-2.4-2.4-6.277.843-9.688-6.552-11.314-11.471-.929-2.809-1.176-5.789-.935-8.731.115-1.401.38-2.864.929-4.165.166-.393.39-.752.602-1.121.081-.141.327-.462.083-.153.163-.207.343-.403.53-.588,1.84-1.821,5.618-1.946,7.742-.002,2.275,2.082,5.679-1.303,3.394-3.394h0Z"></path><path class="i" d="m210.371,86.491c1.221-1.097,2.841-1.492,4.452-1.332,1.424.141,2.512.701,3.375,1.512.105.11.207.223.305.339-.151-.206-.149-.203.006.01.136.196.264.398.382.605.325.566.545,1.15.729,1.777.489,1.667.648,3.377.645,5.109-.006,3.286-.759,6.387-2.025,9.407-1.312,3.132-3.323,6.413-6.348,8.133-2.685,1.527-.269,5.675,2.423,4.145,3.289-1.87,5.782-5.132,7.438-8.48,1.371-2.773,2.503-5.779,2.957-8.847.858-5.804.58-14.219-5.425-17.314-4.01-2.068-8.962-1.465-12.308,1.542-2.302,2.069,1.101,5.455,3.394,3.394h0Z"></path><path class="i" d="m157.499,103.787c.432,1.649.847,3.323,1.095,5.011l-.086-.638c.029.231.042.459.019.692l.086-.638c-.016.108-.04.208-.076.311l.242-.573c-.032.073-.066.134-.11.2l.375-.486c-.052.063-.1.111-.164.161l.486-.375c-.127.081-.26.147-.397.21l.573-.242c-.218.091-.435.158-.669.195l.638-.086c-.211.025-.417.023-.628-.001l.638.086c-.237-.033-.469-.091-.706-.122-.67-.09-1.239-.115-1.849.242-.498.291-.973.862-1.103,1.434-.14.614-.11,1.304.242,1.849.312.484.835,1.022,1.434,1.103.524.071,1.032.204,1.565.228.809.035,1.564-.211,2.287-.541.89-.407,1.584-1.197,1.82-2.156.2-.811.113-1.53-.024-2.342-.273-1.614-.646-3.214-1.061-4.798-.318-1.214-1.729-2.072-2.952-1.676-1.25.404-2.018,1.651-1.676,2.952h0Z"></path><path class="i" d="m130.84,89.641c-.837,2.719-.291,8.975,4.86,9.508,6.809-.041,7.172-7.604,4.879-11.16-1.877-2.912-7.395-4.122-9.74,1.653Z"></path><path class="i" d="m185.368,89.642c.837,2.719.292,8.975-4.86,9.507-6.809-.041-7.172-7.604-4.88-11.16,1.877-2.911,7.395-4.122,9.74,1.653Z"></path><path class="i" d="m179.764,149.474c.008,1.31.026,2.616.105,3.924.112,1.853.177,3.804.749,5.583.562,1.747,1.458,3.364,2.638,4.765,1.192,1.417,2.843,2.508,4.427,3.44,1.117.657,2.631.255,3.284-.861.659-1.126.259-2.624-.861-3.284-1.306-.769-2.397-1.468-3.378-2.6-.081-.094-.326-.428-.139-.165-.091-.128-.181-.258-.267-.391-.194-.3-.372-.61-.537-.927-.074-.143-.145-.287-.214-.432-.048-.102-.221-.505-.101-.211-.15-.369-.274-.745-.372-1.13-.34-1.337-.373-2.69-.456-4.273-.06-1.146-.07-2.292-.077-3.44-.008-1.255-1.098-2.458-2.4-2.4-1.294.058-2.408,1.055-2.4,2.4h0Z"></path><path class="i" d="m210.014,111.087c-3.915.048-7.464,2.206-8.815,5.956-1.271,3.529.22,7.53,3.196,9.658,2.958,2.116,7.301,2.156,10.47.509,3.331-1.731,4.837-5.522,4.234-9.121-.725-4.328-4.935-6.953-9.086-7.003-1.256-.015-2.458,1.115-2.4,2.4.059,1.313,1.054,2.384,2.4,2.4.206.002.41.016.616.022.454.014.054-.005-.043-.02.318.047.632.114.942.201.18.051.355.114.533.172.414.137.008.004-.066-.033.32.16.633.32.931.519.039.026.449.379.177.121-.28-.266.126.124.15.146.15.14.509.42.579.618-.152-.434-.139-.204-.028-.013.07.12.15.234.219.355.065.115.114.265.192.37.076.163.051.099-.075-.191.041.104.079.208.113.314.042.129.277.732.204.814-.003.003-.044-.626-.02-.132.009.172.022.343.022.516,0,.12-.003.241-.009.361-.01.196.087.649.017.061.032.269-.126.652-.203.907-.02.065-.077.367-.132.391.129-.055.225-.433.016-.052-.129.235-.262.463-.402.692-.243.398.059.024.04-.04.006.02-.18.205-.211.239-.109.117-.224.229-.342.337-.059.054-.12.107-.183.158-.137.113-.081.07.166-.127-.049.148-.55.356-.7.437-.134.072-.308.189-.456.222.057-.013.514-.178.091-.051-.287.086-.568.18-.86.246-.182.041-.365.072-.548.102.421-.069.123-.02-.129-.004-.331.021-.664.025-.995.01-.129-.006-.258-.02-.387-.025-.632-.026.497.112-.111-.014-.298-.062-.593-.124-.885-.214-.113-.035-.224-.078-.337-.112-.249-.096-.22-.081.088.046-.105-.047-.208-.096-.31-.148-.252-.129-.484-.284-.724-.432-.233-.144-.146.022.088.076-.106-.025-.291-.252-.369-.328-.078-.076-.155-.154-.229-.234-.028-.03-.397-.425-.128-.132.26.284-.069-.108-.099-.155-.09-.138-.174-.279-.251-.424l-.076-.147c-.111-.237-.098-.198.038.118-.048-.053-.089-.237-.116-.316-.092-.273-.148-.552-.215-.831-.138-.569.006.529-.007-.067-.003-.121-.016-.243-.019-.365-.004-.176-.003-.352.008-.528.005-.085.011-.17.021-.254.019-.186.01-.113-.028.219-.087-.102.224-.861.257-.969.14-.45-.054.103-.053.111-.023-.124.247-.481.312-.588.058-.095.123-.186.181-.281.235-.393-.329.319.089-.11.219-.225.44-.44.67-.654-.439.409-.05.038.069-.042.146-.098.297-.191.451-.277.123-.069.286-.121.398-.206.16-.074.107-.055-.157.059.115-.046.23-.088.347-.128.363-.123.733-.204,1.108-.282.137-.029.424-.004-.049.005.273-.005.545-.037.819-.04,1.255-.015,2.459-1.093,2.4-2.4-.058-1.287-1.055-2.416-2.4-2.4Z"></path><path class="i" d="m208.547,29.391c6.151,7.482,9.071,16.697,10.653,26.117,1.901,11.322,3.218,22.731,5.248,34.036,1.73,9.638,4.851,19.749,2.911,29.599-1.783,9.055-7.938,16.154-16.022,20.32-8.615,4.44-18.634,5.617-28.202,5.671-3.088.018-3.094,4.818,0,4.8,9.34-.053,18.862-1.211,27.518-4.882,9.024-3.827,16.576-10.694,20.036-20.007,3.749-10.09,1.477-20.835-.53-31.02-2.359-11.974-4.022-24.069-5.77-36.143-.814-5.624-1.872-11.225-3.799-16.586-2.01-5.592-4.874-10.708-8.648-15.299-.824-1.002-2.54-.854-3.394,0-.991.991-.826,2.39,0,3.394h0Z"></path><path class="i" d="m122.562,143.95c-8.03-1.158-16.153-3.578-22.893-8.217-2.73-1.879-5.222-4.241-6.88-7.133-2.075-3.62-3.152-7.809-3.504-11.947-.734-8.641,1.238-17.054,2.441-25.549,1.094-7.725,1.79-15.498,2.779-23.237,1.888-14.772,5.202-30.123,15.077-41.784,9.477-11.192,24.112-18.151,38.487-20.513,8.632-1.418,17.757-.86,26.284.983,8.5,1.837,16.877,5.2,23.603,10.824,1.724,1.442,3.329,3.013,4.82,4.695,2.054,2.316,5.438-1.089,3.394-3.394C193.62,4.523,173.121-.747,154.763.084c-9.164.415-18.11,2.818-26.446,6.592-6.445,2.918-12.702,6.71-17.893,11.553-12.114,11.303-17.331,27.139-19.805,43.099-1.253,8.085-1.979,16.237-2.978,24.355-1.068,8.681-3.168,17.286-3.312,26.06-.143,8.71,1.861,17.957,8.217,24.294,5.955,5.937,14.284,9.363,22.334,11.316,2.115.513,4.253.914,6.406,1.224,1.281.185,2.579-.316,2.952-1.676.31-1.127-.385-2.766-1.676-2.952h0Z"></path><path class="i" d="m182.942,174.652c-5.366,2.469-11.215,4.028-17.091,4.614-2.99.298-5.972.278-8.972.298-3.287.022-6.574-.208-9.819-.736-1.278-.208-2.583.332-2.952,1.676-.315,1.146.39,2.743,1.676,2.952,6.719,1.095,13.746,1.287,20.519.563,6.627-.709,13.006-2.436,19.061-5.222,1.178-.542,1.47-2.243.861-3.284-.707-1.209-2.102-1.405-3.284-.861h0Z"></path><path class="i" d="m120.906,220.973c-.976-1.773-1.945-3.551-2.91-5.33-.282-.52-.871-.948-1.434-1.103-.574-.158-1.339-.087-1.849.242-1.121.723-1.502,2.102-.861,3.284.965,1.779,1.934,3.557,2.91,5.33.286.52.868.947,1.434,1.103.574.158,1.339.087,1.849-.242,1.116-.719,1.509-2.106.861-3.284h0Z"></path><path class="i" d="m145.538,221.546c-2.506-7.77-4.885-15.581-7.13-23.43-.848-2.965-5.481-1.704-4.629,1.276,2.245,7.849,4.624,15.66,7.13,23.43.944,2.928,5.581,1.676,4.629-1.276h0Z"></path><path class="i" d="m199.456,223.395c4.026-7.347,7.993-14.727,11.848-22.165.879-1.696,2.071-3.467,2.619-5.303.653-2.191-.472-3.981-1.909-5.516-2.784-2.974-5.732-5.789-8.704-8.574l-.486,3.769c1.681-.961,3.361-1.924,5.042-2.886,1.529-.875,3.843-1.687,4.803-3.218,1.764-2.811-1.703-6.491-3.456-8.443-2.466-2.747-5.362-5.088-8.293-7.316-2.642-2.008-5.396-4.2-8.316-5.791-1.528-.833-3.497-.506-4.489.99s-1.133,3.814-1.538,5.541c-.841,3.587-1.712,7.166-2.611,10.739-1.849,7.351-3.816,14.672-5.893,21.962-2.326,8.162-4.792,16.284-7.394,24.362-.949,2.947,3.684,4.209,4.629,1.276,5.147-15.981,9.767-32.134,13.813-48.429.56-2.254,1.108-4.511,1.645-6.771.258-1.086.513-2.173.766-3.26.182-.784.431-2.602.728-2.998l-.861.861c-1.281-.323-1.579-.296-.895.08.221.144.441.288.661.433.461.304.922.609,1.38.917.857.575,1.709,1.159,2.554,1.752,1.881,1.321,3.73,2.687,5.504,4.15,1.732,1.428,3.413,2.932,4.935,4.584.585.634,1.157,1.286,1.658,1.989.283.397.551.804.798,1.225.117.199.229.401.336.607.194.399.202.402.024.01l.328-1.211c.199-.155.172-.152-.08.009-.211.12-.421.24-.632.36-.281.16-.561.32-.842.481-.771.441-1.543.882-2.314,1.324-1.47.842-2.94,1.685-4.411,2.525-1.31.749-1.611,2.714-.486,3.769,2.629,2.465,5.24,4.951,7.735,7.552.435.453,1.484,1.227,1.677,1.839-.057-.18-.053.018-.108.181-.139.413-.446.872-.646,1.261-.834,1.625-1.675,3.247-2.52,4.866-3.508,6.72-7.102,13.395-10.744,20.043-1.485,2.71,2.658,5.135,4.145,2.423h0Z"></path><path class="i" d="m55.176,223.395c8.9-17.041,22.115-31.727,38.032-42.5,4.544-3.075,9.297-5.83,14.217-8.259,1.162-.574,1.482-2.221.861-3.284-.693-1.185-2.117-1.437-3.284-.861-17.931,8.852-33.563,22.144-45.257,38.356-3.24,4.493-6.15,9.215-8.714,14.125-1.429,2.735,2.713,5.165,4.145,2.423h0Z"></path><path class="i" d="m199.826,168.708c20.249,7.823,38.333,21.587,51.325,38.975,3.709,4.964,7.012,10.22,9.881,15.712,1.431,2.739,5.575.315,4.145-2.423-10.548-20.192-27.061-37.177-46.74-48.611-5.546-3.222-11.352-5.971-17.335-8.282-1.209-.467-2.633.515-2.952,1.676-.372,1.356.462,2.483,1.676,2.952h0Z"></path><path class="i" d="m151.233,128.737c.371-.196.744-.384,1.124-.561.08-.037.475-.192.11-.051-.391.152.108-.038.148-.052.274-.098.548-.196.827-.281.753-.231,1.524-.396,2.302-.518-.34.053.127-.015.248-.028.226-.024.453-.045.68-.062.549-.041,1.098-.061,1.648-.064,1.932-.012,3.128.079,4.927.642.318.1.627.22.939.336-.56-.21.063.04.267.148.192.101.381.208.564.324.195.123.829.604.111.045,1.021.796,2.398.996,3.394,0,.829-.829,1.028-2.593,0-3.394-2.813-2.192-6.373-2.877-9.883-2.9-3.464-.022-6.765.654-9.828,2.272-1.146.605-1.495,2.199-.861,3.284.679,1.16,2.133,1.468,3.284.861h0Z"></path><path class="i" d="m47.148,132.008c-1.329.793-2.691,1.303-4.147.549-.819-.424-1.749-1.405-2.462-2.353-2.133-2.834-3.827-6.376-4.691-9.811-.796-3.165-.419-6.27.464-9.37.998-3.505,2.823-7.137,2.672-10.848-.153-3.758-2.154-7.249-5.388-9.198-3.341-2.013-7.595-1.993-11.105-.451s-5.912,4.464-7.095,8.07c-.617,1.88-.87,3.902-.9,5.876-.025,1.591.454,3.371.205,4.938-.405,2.553-4.087,4.002-6.037,2.94-1.233-.672-1.987-2.106-2.54-3.341-.714-1.594-1.151-3.374-1.283-5.114-.503-6.65,2.806-12.965,7.507-17.485,4.567-4.391,10.671-7.106,17.065-6.822,6.794.302,13.136,4.106,16.573,9.984,1.837,3.142,2.687,6.702,2.404,10.334-.26,3.342-1.613,6.705-2.679,9.863-1.23,3.64-2.295,7.182-1.022,10.994.395,1.184.99,2.254,1.603,3.332.79,1.389,1.972,3.008,2.227,4.618.213,1.346-.236,2.534-1.37,3.293-2.555,1.709-.154,5.869,2.423,4.145,3.696-2.473,4.623-6.729,2.842-10.713-1.312-2.935-3.616-5.507-3.541-8.874.042-1.892.868-3.748,1.467-5.52.559-1.653,1.101-3.311,1.588-4.987,1.216-4.183,1.733-8.287.745-12.583-1.791-7.786-7.823-14.115-15.147-17.029-7.231-2.877-15.547-1.904-22.259,1.855-6.533,3.659-11.804,9.869-14.134,17.005-1.247,3.819-1.478,7.93-.625,11.859.766,3.527,2.589,7.752,5.995,9.47,3.627,1.829,8.185.606,10.86-2.345,1.392-1.536,2.223-3.502,2.155-5.594-.06-1.852-.306-3.654-.166-5.515.278-3.69,1.938-7.17,5.596-8.498,3.241-1.177,7.027-.164,8.611,3.056,1.686,3.427-.476,7.448-1.506,10.768-1.114,3.593-1.771,7.238-1.246,10.996.578,4.137,2.456,8.263,4.674,11.779,1.911,3.03,4.468,5.969,8.234,6.41,2.088.244,4.084-.482,5.857-1.54,2.651-1.581.239-5.732-2.423-4.145Z"></path><path class="i" d="m58.85,151.703c-.198.12-.404.224-.603.34-.06.035-.419.199-.049.039-.339.146-.708.253-1.068.336-.144.033-.289.061-.434.087.535-.097-.16.005-.235.008-.362.016-.728.008-1.087-.036.556.068-.145-.049-.216-.066-.141-.035-.28-.074-.418-.118-.004-.001-.61-.274-.316-.112.3.166-.265-.166-.257-.161-.113-.067-.225-.137-.334-.21-.01-.007-.502-.391-.224-.154s-.183-.172-.19-.179c-.136-.126-.267-.257-.393-.393-.104-.112-.199-.23-.299-.345-.235-.269.289.473,0-.019-.15-.254-.314-.495-.45-.758-.037-.072-.15-.245-.152-.313.01.412.094.263.015.017-.094-.295-.192-.585-.26-.888-.03-.132-.04-.276-.078-.405-.097-.329.033.607.015.074-.009-.265-.029-.525-.02-.791.004-.103.015-.206.018-.309.018-.502-.142.395-.017.112.127-.288.171-.675.267-.985-.151.487-.043.1.028-.038.073-.144.152-.285.236-.422.069-.112.144-.218.216-.328-.296.454.063-.073.127-.144.21-.235.437-.455.674-.663.081-.071.456-.351.115-.105.143-.103.288-.205.437-.3.297-.19.608-.347.922-.508.206-.106.291-.276-.067.019.063-.052.238-.093.324-.124.359-.129.727-.236,1.101-.313.133-.028.268-.054.403-.073-.578.082.131.011.211.009.148-.004.294.005.442.004.667-.007-.233-.085.156.003.355.08.705.158,1.045.291-.454-.177.087.06.15.095.159.087.309.189.465.283.36.216.022.003-.048-.054.141.115.278.233.41.357.199.188.372.398.559.597.247.264-.307-.468.012.022.067.102.136.202.201.306.097.156.188.315.273.477.064.122.283.64.067.093.124.314.232.632.316.959.038.148.066.299.101.448.138.584-.022-.51.016.088.021.336.034.669.014,1.006-.03.515-.028-.001.017,0,.005,0-.104.517-.11.54-.038.152-.082.301-.131.449-.189.57.13-.144-.1.255-.169.292-.331.583-.519.864.296-.441-.081.092-.138.155-.14.155-.286.304-.438.446-.103.096-.21.187-.316.28.377-.326-.3.2-.385.255-1.054.679-1.584,2.162-.861,3.284.68,1.054,2.155,1.588,3.284.861,3.484-2.243,5.271-6.225,4.172-10.293-1.03-3.813-4.395-6.834-8.435-6.869-3.458-.03-7.022,1.969-8.827,4.908s-1.464,6.916.499,9.698c1.294,1.834,3.179,3.326,5.411,3.798,2.475.524,5.016.066,7.179-1.241,1.074-.649,1.571-2.183.861-3.284-.696-1.079-2.134-1.556-3.284-.861Z"></path><path class="i" d="m152.997,157.35c1.085-3.116.654-6.485-1.332-9.141-2.059-2.754-5.103-4.423-8.326-5.464-6.632-2.143-14.247-1.472-20.792.736-5.607,1.892-10.092,5.531-13.023,10.688-3.426,6.028-5.197,13.057-6.473,19.818-.724,3.838-1.262,7.715-1.669,11.599-.364,3.477-.343,7.011-1.269,10.398-.833,3.048-2.151,6.106-2.241,9.305-.083,2.94,1.464,4.968,3.69,6.676,2.544,1.952,5.435,3.43,8.322,4.804,1.537.731,3.092,1.424,4.658,2.091.943.401,1.736.765,2.759.855.697.061,1.396.11,2.094.16,7.556.544,13.605-4.894,16.42-11.488,1.099-2.574,1.732-5.239,2.351-7.956.269-1.181.531-2.364.819-3.541.154-.628.261-1.357.746-1.805.883-.815,2.437-.893,3.56-1.02,1.64-.185,3.311-.393,4.759-1.255,3.115-1.856,4.347-6.257,3.052-9.572-.67-1.714-1.81-3.127-3.383-4.093-2.639-1.622-5.053,2.528-2.423,4.145,1.794,1.103,2.281,4.536.036,5.536-.936.417-2.052.429-3.052.554-1.545.194-3.055.481-4.442,1.232-2.151,1.166-3.055,3.206-3.592,5.46-.497,2.087-.935,4.189-1.452,6.271-1.378,5.552-4.51,11.298-10.547,12.61-1.06.23-2.132.177-3.206.095-.525-.04-1.24.017-1.741-.133-.599-.179-1.318-.619-1.921-.885-2.747-1.21-5.473-2.497-8.069-4.006-.956-.556-1.992-1.181-2.83-1.821-.424-.324-.82-.686-1.195-1.065.027.027-.468-.548-.258-.273.225.295-.35-.62-.16-.203-.331-.728-.24-1.536-.081-2.44.25-1.42.706-2.806,1.128-4.181.965-3.141,1.581-6.114,1.819-9.396.241-3.323.571-6.645,1.045-9.943.915-6.373,2.224-12.765,4.471-18.814,1.724-4.64,4.213-9.207,8.479-11.859,2.228-1.385,4.647-2.203,7.209-2.79,3.309-.759,6.694-1.173,10.09-.895,4.946.404,13.627,3.162,11.34,9.73-.426,1.224.486,2.625,1.676,2.952,1.322.363,2.524-.448,2.952-1.676h0Z"></path><path class="i" d="m133.906,157.864c3.215.218,6.437.453,9.631.887,1.33.181,2.656.402,3.976.648,1.231.229,2.653.422,3.743.909.499.223.975.544,1.2.753.183.17.365.35.518.548-.219-.282.182.321.182.321.42.74.479,1.433.458,2.459-.011.559.147-.481-.007.125-.054.212-.091.427-.15.638-.188.663-.161.608-.528,1.218-.452.752-.986,1.2-1.959,1.429-3.005.709-1.733,5.339,1.276,4.629,6.478-1.529,8.247-10.843,3.311-15.015-2.717-2.297-6.509-2.664-9.903-3.17-3.897-.581-7.819-.914-11.748-1.181-1.295-.088-2.4,1.166-2.4,2.4,0,1.372,1.102,2.312,2.4,2.4h0Z"></path><path class="i" d="m133.613,170.224c3.049.158,6.095.395,9.127.745,1.415.163,2.826.36,4.228.609,1.309.232,2.57.459,3.566,1.085.053.033.365.279.084.047.085.07.172.146.248.225.094.098.511.621.243.232.113.164.213.333.313.504.064.11.116.228.17.343-.083-.177-.097-.315-.039-.055.045.202.121.398.166.6.039.171.098.785.04.108.038.44.098.901.032,1.342-.109.735-.81,1.855-1.396,2.263-.143.099-.302.18-.455.261.051-.027.24-.098-.014-.015-.253.082-.034.03.04.025-.162.009-.316.001-.479-.009-.838-.051-1.677-.188-2.513-.276-3.374-.354-6.733-.483-10.125-.431-3.086.047-3.095,4.847,0,4.8,3.505-.054,6.972.095,10.458.467,1.893.202,3.547.453,5.285-.539,1.663-.949,2.847-2.587,3.522-4.346.93-2.421.545-5.523-.983-7.631-2.142-2.955-5.711-3.495-9.089-3.982-4.122-.594-8.273-.959-12.431-1.175-1.296-.067-2.4,1.151-2.4,2.4,0,1.356,1.1,2.332,2.4,2.4h0Z"></path></g></g></svg>